<svg width="715" height="749" viewBox="0 0 715 749" fill="none" xmlns="http://www.w3.org/2000/svg">
<rect width="715" height="749" fill="#1E1E1E"/>
<g id="Group 1">
<rect id="tent3" x="219" y="35" width="151" height="449" fill="#ED1111"/>
<rect id="tent2" x="445" y="35" width="151" height="449" fill="#ED1111"/>
<rect id="tent1" x="186" y="495" width="529" height="221" fill="#ED1111"/>
<rect id="psc_workshop2" width="150" height="223" fill="#16C51C"/>
<rect id="psc_workshop1" y="252" width="150" height="225" fill="#16C51C"/>
<rect id="booth34" x="219" y="410" width="45" height="50" fill="#16C51C"/>
<rect id="booth25" x="325" y="434" width="45" height="50" fill="#16C51C"/>
<rect id="booth2" x="661" y="666" width="45" height="50" fill="#16C51C"/>
<rect id="booth13" x="661" y="495" width="45" height="50" fill="#16C51C"/>
<rect id="booth12" x="606" y="495" width="45" height="50" fill="#16C51C"/>
<rect id="booth11" x="549" y="495" width="45" height="50" fill="#16C51C"/>
<rect id="booth3" x="504" y="666" width="45" height="50" fill="#16C51C"/>
<rect id="booth4" x="442" y="666" width="45" height="50" fill="#16C51C"/>
<rect id="booth5" x="372" y="666" width="45" height="50" fill="#16C51C"/>
<rect id="booth6" x="282" y="666" width="45" height="50" fill="#16C51C"/>
<rect id="booth7" x="190" y="666" width="45" height="50" fill="#16C51C"/>
<rect id="booth10" x="394" y="495" width="45" height="50" fill="#16C51C"/>
<rect id="booth9" x="327" y="495" width="45" height="50" fill="#16C51C"/>
<rect id="booth8" x="190" y="495" width="45" height="50" fill="#16C51C"/>
<rect id="booth27" x="325" y="294" width="45" height="50" fill="#16C51C"/>
<rect id="booth29" x="325" y="78" width="45" height="50" fill="#16C51C"/>
<rect id="booth16" x="551" y="235" width="45" height="50" fill="#16C51C"/>
<rect id="booth22" x="445" y="307" width="45" height="50" fill="#16C51C"/>
<rect id="booth15" x="551" y="332" width="45" height="50" fill="#16C51C"/>
<rect id="booth23" x="445" y="368" width="45" height="50" fill="#16C51C"/>
<rect id="booth24" x="445" y="434" width="45" height="50" fill="#16C51C"/>
<rect id="booth19" x="445" y="63" width="45" height="50" fill="#16C51C"/>
<rect id="booth20" x="445" y="128" width="45" height="50" fill="#16C51C"/>
<rect id="booth21" x="445" y="193" width="45" height="50" fill="#16C51C"/>
<rect id="booth14" x="551" y="401" width="45" height="50" fill="#16C51C"/>
<rect id="booth17" x="551" y="168" width="45" height="50" fill="#16C51C"/>
<rect id="booth18" x="551" y="62" width="45" height="50" fill="#16C51C"/>
<rect id="booth28" x="325" y="154" width="45" height="50" fill="#16C51C"/>
<rect id="booth26" x="325" y="364" width="45" height="50" fill="#16C51C"/>
<rect id="booth33" x="219" y="335" width="45" height="50" fill="#16C51C"/>
<rect id="booth32" x="219" y="198" width="45" height="50" fill="#16C51C"/>
<rect id="booth30" x="219" y="44" width="45" height="50" fill="#16C51C"/>
<rect id="booth31" x="219" y="129" width="45" height="50" fill="#16C51C"/>
<rect id="pathway6" x="150" y="260" width="69" height="43" fill="#D9D9D9"/>
<rect id="pathway7" y="223" width="150" height="29" fill="#D9D9D9"/>
<rect id="pathway1" x="485" y="484" width="69" height="11" fill="#D9D9D9"/>
<rect id="pathway5" x="258" y="484" width="69" height="11" fill="#D9D9D9"/>
<rect id="pathway2" x="497" y="484" width="59" height="11" fill="#D9D9D9"/>
<rect id="pathway3" x="268" y="484" width="59" height="11" fill="#D9D9D9"/>
<rect id="pathway4" x="372" y="248" width="73" height="42" fill="#D9D9D9"/>
<rect id="entrance" x="556" y="716" width="88" height="33" fill="#D9D9D9"/>
</g>
</svg>
